<svg xmlns="http://www.w3.org/2000/svg" viewBox="0 0 1440 320" preserveAspectRatio="none"><path fill="#fff" fill-opacity="1" d="M0,32L30,32C60,32,120,32,180,58.7C240,85,300,139,360,149.3C420,160,480,128,540,138.7C600,149,660,203,720,197.3C780,192,840,128,900,117.3C960,107,1020,149,1080,192C1140,235,1200,277,1260,277.3C1320,277,1380,235,1410,213.3L1440,192L1440,320L1410,320C1380,320,1320,320,1260,320C1200,320,1140,320,1080,320C1020,320,960,320,900,320C840,320,780,320,720,320C660,320,600,320,540,320C480,320,420,320,360,320C300,320,240,320,180,320C120,320,60,320,30,320L0,320Z"></path></svg>